<svg width="20" height="20" viewBox="0 0 20 20" fill="none" xmlns="http://www.w3.org/2000/svg">
<path d="M8.33333 6.66671V5.00004C8.33333 4.55801 8.50893 4.13409 8.82149 3.82153C9.13405 3.50897 9.55797 3.33337 10 3.33337H15.8333C16.2754 3.33337 16.6993 3.50897 17.0118 3.82153C17.3244 4.13409 17.5 4.55801 17.5 5.00004V15C17.5 15.4421 17.3244 15.866 17.0118 16.1786C16.6993 16.4911 16.2754 16.6667 15.8333 16.6667H10C9.55797 16.6667 9.13405 16.4911 8.82149 16.1786C8.50893 15.866 8.33333 15.4421 8.33333 15V13.3334" stroke="#9E9E9E" stroke-width="1.25" stroke-linecap="round" stroke-linejoin="round"/>
<path d="M14.1667 10H2.50008M2.50008 10L5.00008 7.5M2.50008 10L5.00008 12.5" stroke="#9E9E9E" stroke-width="1.25" stroke-linecap="round" stroke-linejoin="round"/>
</svg>
